<svg id="レイヤー_1" data-name="レイヤー 1" xmlns="http://www.w3.org/2000/svg" viewBox="0 0 256 164.03"><defs><style>.cls-1{fill:#fff;}.cls-2{fill:none;stroke:#fff;stroke-miterlimit:10;}</style></defs><title>logo</title><path class="cls-1" d="M25.45,64.14c-.6,0-.92.21-1,.62a9.57,9.57,0,0,0-.09,1.51,52,52,0,0,0,2,15.64,27.59,27.59,0,0,0,5.69,10.4,21,21,0,0,0,8.71,5.77,32.78,32.78,0,0,0,10.93,1.78,68.8,68.8,0,0,0,11.73-1A20.54,20.54,0,0,0,73.2,94.5,2.25,2.25,0,0,1,75.06,94a2.71,2.71,0,0,1,1.6.89,3.33,3.33,0,0,1,.8,1.6,1.89,1.89,0,0,1-.35,1.59q-5.7,7.47-12.8,10.31t-17.6,2.85A47.83,47.83,0,0,1,28.38,108a34,34,0,0,1-12.8-9A36.61,36.61,0,0,1,8.12,85.49a56.56,56.56,0,0,1-2.4-16.8A46.68,46.68,0,0,1,8.65,52.23,39.55,39.55,0,0,1,29.53,29.66a38.05,38.05,0,0,1,16.18-3.38A34.76,34.76,0,0,1,59.3,28.86,29.94,29.94,0,0,1,69.7,36a32.36,32.36,0,0,1,6.67,10.85,38,38,0,0,1,2.4,13.59c0,2.49-.89,3.73-2.67,3.74ZM58,57.92c1.66,0,2.61-.6,2.85-1.78A24.21,24.21,0,0,0,60,44.68a20,20,0,0,0-3.29-6.14,16.34,16.34,0,0,0-5.16-4.26,14.5,14.5,0,0,0-6.93-1.6,17.86,17.86,0,0,0-14.13,6.13,18.67,18.67,0,0,0-3.64,6.49,41.8,41.8,0,0,0-1.78,7.82,15.53,15.53,0,0,0-.27,3.47c.06.88.33,1.33.8,1.33Z" transform="translate(0 0)"/><path class="cls-1" d="M137.07,88q0,4.44.18,7.46a11.58,11.58,0,0,0,1.24,5,7,7,0,0,0,3.29,3,21.54,21.54,0,0,0,6.31,1.6,2.26,2.26,0,0,1,1.59,1,3.27,3.27,0,0,1,.54,1.87,3,3,0,0,1-.54,1.69,1.77,1.77,0,0,1-1.59.8,75.29,75.29,0,0,1-8.36-.62,89.58,89.58,0,0,0-10.48-.62,98.24,98.24,0,0,0-11.11.62,92.59,92.59,0,0,1-10.4.62,1.6,1.6,0,0,1-1.42-.8,3,3,0,0,1-.54-1.69,3.27,3.27,0,0,1,.54-1.87,2.28,2.28,0,0,1,1.6-1,28.22,28.22,0,0,0,7.2-1.6,7.68,7.68,0,0,0,3.73-2.94,9.89,9.89,0,0,0,1.33-4.62q.18-2.75.18-6.84V60.4q0-7.63-.36-12.26a18.81,18.81,0,0,0-1.6-7,6.6,6.6,0,0,0-3.73-3.29,33.93,33.93,0,0,0-6.75-1.42,1.73,1.73,0,0,1-1.6-.89,3.19,3.19,0,0,1,0-3.55,1.75,1.75,0,0,1,1.6-.89q1.77-.18,4.35-.36c1.72-.11,3.53-.26,5.42-.44s3.82-.42,5.78-.71,3.7-.62,5.24-1a17.53,17.53,0,0,0,3.11-.8,5.27,5.27,0,0,1,1.87-.44c1.42,0,2.33.41,2.75,1.24a5.18,5.18,0,0,1,.63,2.31Zm-9.43-68.59A11.29,11.29,0,0,1,120,16.62a8.7,8.7,0,0,1-3.2-6.85,9.17,9.17,0,0,1,3-6.93A10.5,10.5,0,0,1,127.29,0a9.26,9.26,0,0,1,7,2.93,10,10,0,0,1,2.76,7,9.24,9.24,0,0,1-2.67,6.67,9,9,0,0,1-6.74,2.77Z" transform="translate(0 0)"/><path class="cls-1" d="M204.3,84.63q0,10,2.22,14.75t8.09,4.8a23.36,23.36,0,0,0,7.73-1.25,21.17,21.17,0,0,0,5.6-2.66,1.28,1.28,0,0,1,1.24-.09,3.16,3.16,0,0,1,1.25.89,4.49,4.49,0,0,1,.8,1.33,1.3,1.3,0,0,1-.09,1.25,18.89,18.89,0,0,1-8.8,7.82,32.25,32.25,0,0,1-12.7,2.31q-12.1,0-17.07-5.42t-5-17V45.7a27.07,27.07,0,0,0-.17-3.37,2.34,2.34,0,0,0-1.07-1.78,6.57,6.57,0,0,0-2.93-.62c-1.37-.06-3.29-.09-5.78-.09-.35,0-.65-.35-.89-1.07a8.66,8.66,0,0,1-.44-2.31,5.65,5.65,0,0,1,.26-2.31c.24-.71.6-1.07,1.07-1.07a36,36,0,0,0,7.64-1.33,13.37,13.37,0,0,0,5.43-3.11,15,15,0,0,0,3.55-5.78,50,50,0,0,0,2.22-9.5,2.13,2.13,0,0,1,1.42-1.61,6.8,6.8,0,0,1,2.67-.53,7,7,0,0,1,2.57.45c.78.29,1.16.68,1.16,1.15V28.11a10.15,10.15,0,0,0,.27,3.29c.18.29.91.44,2.22.44h18.48a1.58,1.58,0,0,1,1.6,1.42,10.47,10.47,0,0,1,.36,2.49,9.38,9.38,0,0,1-.45,2.58,1.82,1.82,0,0,1-1.86,1.51h-19c-.83,0-1.3.21-1.42.62A28.69,28.69,0,0,0,204.3,45Z" transform="translate(0 0)"/><path class="cls-1" d="M42,146.05a8.45,8.45,0,0,0-.21,1,9.32,9.32,0,0,0-.09,1.29V151a.23.23,0,0,1-.15.19,1,1,0,0,1-.34.09,1,1,0,0,1-.34,0,.29.29,0,0,1-.19-.18A6.52,6.52,0,0,0,39.44,148a3.79,3.79,0,0,0-3-1.08,3.68,3.68,0,0,0-2.29.7,2.2,2.2,0,0,0-.91,1.86A1.74,1.74,0,0,0,34,151a8.7,8.7,0,0,0,2,1l1.26.47,1.19.47c.65.3,1.26.62,1.83.95A6.22,6.22,0,0,1,41.72,155a5.34,5.34,0,0,1,1,1.49,4.72,4.72,0,0,1,.35,1.93,4.43,4.43,0,0,1-.6,2.39,4.92,4.92,0,0,1-1.54,1.54,6.9,6.9,0,0,1-2.15.85,11.1,11.1,0,0,1-2.37.26,10.71,10.71,0,0,1-2.19-.23,8.58,8.58,0,0,1-2.11-.64.6.6,0,0,0-.47.08.79.79,0,0,0-.32.56c0,.08-.06.13-.17.16a2.16,2.16,0,0,1-.36,0,.76.76,0,0,1-.3,0,.16.16,0,0,1-.15-.17,5.69,5.69,0,0,1,.07-.83,6.74,6.74,0,0,0,.08-1,8.39,8.39,0,0,0-.06-1,9.23,9.23,0,0,0-.11-1.07c0-.35-.07-.67-.09-.95s0-.4,0-.6a.23.23,0,0,1,.15-.22.83.83,0,0,1,.34-.1,1.09,1.09,0,0,1,.36,0,.28.28,0,0,1,.2.21,9.33,9.33,0,0,0,.68,1.92A4.56,4.56,0,0,0,33,161a4,4,0,0,0,1.51.85,6.91,6.91,0,0,0,2.12.28,3.2,3.2,0,0,0,2.21-.75,2.71,2.71,0,0,0,.85-2.11,2.32,2.32,0,0,0-.85-1.9,9.12,9.12,0,0,0-2-1.23l-1.07-.45-1.12-.45-1.63-.7a5.49,5.49,0,0,1-1.44-.89,4,4,0,0,1-1-1.31,4.57,4.57,0,0,1-.37-2,4.22,4.22,0,0,1,.58-2.3,4.8,4.8,0,0,1,1.51-1.53,6.84,6.84,0,0,1,2.05-.85,9.85,9.85,0,0,1,2.23-.26,6.47,6.47,0,0,1,1.86.25,7.09,7.09,0,0,1,1.79.88.47.47,0,0,0,.4,0c.16-.06.29-.27.39-.62a.27.27,0,0,1,.23-.19,1.21,1.21,0,0,1,.38,0,1.33,1.33,0,0,1,.34.1C42,145.91,42.06,146,42,146.05Z" transform="translate(0 0)"/><path class="cls-1" d="M96.37,146.35c.81,1.88,1.61,3.76,2.38,5.63s1.57,3.75,2.37,5.64a.21.21,0,0,0,.25.22.35.35,0,0,0,.24-.22q.65-2,1.11-3.93c.31-1.25.61-2.52.89-3.8a5,5,0,0,0,.15-1.09c0-.58-.15-1-.46-1.11a4.42,4.42,0,0,0-1.43-.4.48.48,0,0,1-.37-.23.64.64,0,0,1,0-.77.4.4,0,0,1,.35-.17,9.23,9.23,0,0,1,1.66.15,7.66,7.66,0,0,0,1.51.15,8.58,8.58,0,0,0,1.6-.15,8,8,0,0,1,1.38-.15.32.32,0,0,1,.32.17.9.9,0,0,1,.09.4,1,1,0,0,1-.09.41c-.07.13-.15.19-.25.19a3.26,3.26,0,0,0-1.26.36,2.67,2.67,0,0,0-.87.77,4.9,4.9,0,0,0-.6,1.13c-.16.43-.32.9-.47,1.4q-1.89,6.44-4,12.77c0,.15-.21.23-.47.24s-.43-.06-.47-.2c-.73-2-1.48-4-2.23-5.92s-1.59-4-2.52-6.07a.25.25,0,0,0-.23-.18c-.1,0-.17.06-.22.18-.46,1.18-.88,2.29-1.29,3.32s-.78,2-1.14,3-.73,1.89-1.08,2.82-.7,1.89-1,2.87c0,.14-.22.23-.49.24s-.44-.07-.49-.24q-1.17-3.33-2.28-6.58c-.74-2.17-1.45-4.33-2.13-6.5a11.93,11.93,0,0,0-.59-1.54,4.29,4.29,0,0,0-.62-1,2.32,2.32,0,0,0-.79-.56,5.76,5.76,0,0,0-1-.3.34.34,0,0,1-.27-.23.94.94,0,0,1-.07-.37,1.09,1.09,0,0,1,.07-.4.26.26,0,0,1,.27-.17,12.58,12.58,0,0,1,1.94.15,14.59,14.59,0,0,0,2.09.15,15.25,15.25,0,0,0,2.13-.15,14.59,14.59,0,0,1,2.09-.15.34.34,0,0,1,.3.17.82.82,0,0,1,.13.38.66.66,0,0,1-.09.39.46.46,0,0,1-.34.23,3.41,3.41,0,0,0-1.55.49,1.09,1.09,0,0,0-.45.94,4.93,4.93,0,0,0,.07.66c.06.24.12.5.2.78.35,1.27.72,2.53,1.11,3.76s.79,2.46,1.22,3.7a.29.29,0,0,0,.26.22.3.3,0,0,0,.3-.19q2.19-6,4.38-11.26a.41.41,0,0,1,.41-.27A.43.43,0,0,1,96.37,146.35Z" transform="translate(0 0)"/><path class="cls-1" d="M149,158.56v1.58a2.37,2.37,0,0,0,.27,1.05,1.6,1.6,0,0,0,.69.65,5.16,5.16,0,0,0,1.34.33.51.51,0,0,1,.34.21.64.64,0,0,1,.11.4.61.61,0,0,1-.11.35.35.35,0,0,1-.34.17,15.05,15.05,0,0,1-1.77-.13,18.36,18.36,0,0,0-2.22-.13,20.61,20.61,0,0,0-2.36.13,17.92,17.92,0,0,1-2.2.13.36.36,0,0,1-.31-.17.63.63,0,0,1-.11-.35.8.8,0,0,1,.11-.4.51.51,0,0,1,.34-.21,6.63,6.63,0,0,0,1.53-.33,1.79,1.79,0,0,0,.79-.62,2.21,2.21,0,0,0,.28-1v-7.51c0-1.08,0-2-.07-2.6a4,4,0,0,0-.34-1.49,1.36,1.36,0,0,0-.79-.7,7.09,7.09,0,0,0-1.44-.3.39.39,0,0,1-.34-.19.68.68,0,0,1,0-.75.39.39,0,0,1,.34-.19l.93-.08,1.15-.09a7.42,7.42,0,0,0,1.22-.16,8.63,8.63,0,0,0,1.11-.2,3.76,3.76,0,0,0,.66-.17,1.38,1.38,0,0,1,.4-.1c.3,0,.5.09.58.27a1.05,1.05,0,0,1,.13.49Zm-2-15.06a2.41,2.41,0,0,1-1.62-.58,1.81,1.81,0,0,1-.68-1.45,1.91,1.91,0,0,1,.64-1.47,2.15,2.15,0,0,1,1.58-.61,2,2,0,0,1,1.49.62,2.12,2.12,0,0,1,.58,1.49,2,2,0,0,1-.56,1.42A1.87,1.87,0,0,1,147,143.5Z" transform="translate(0 0)"/><path class="cls-1" d="M197.11,158.56v1.58a2.41,2.41,0,0,0,.27,1.05,1.49,1.49,0,0,0,.73.65,5.75,5.75,0,0,0,1.42.33.51.51,0,0,1,.34.21.8.8,0,0,1,.11.4.63.63,0,0,1-.11.35.35.35,0,0,1-.34.17,16.62,16.62,0,0,1-1.87-.13,18.57,18.57,0,0,0-2.24-.13,20.39,20.39,0,0,0-2.34.13,18,18,0,0,1-2.07.13.32.32,0,0,1-.3-.17.63.63,0,0,1-.11-.35.8.8,0,0,1,.11-.4.51.51,0,0,1,.34-.21,5.18,5.18,0,0,0,1.45-.33,1.72,1.72,0,0,0,.74-.62,2.32,2.32,0,0,0,.26-1v-9.85a5.23,5.23,0,0,0-.26-1.62,1.33,1.33,0,0,0-.7-.77,4.06,4.06,0,0,0-1.38-.25.36.36,0,0,1-.3-.15.74.74,0,0,1-.15-.34.57.57,0,0,1,.06-.36.32.32,0,0,1,.32-.16,15.17,15.17,0,0,0,1.86-.31c.86-.15,1.7-.35,2.66-.6a.8.8,0,0,1,.3-.06h.3a.81.81,0,0,1,.64.31.88.88,0,0,1,.23.71l-.08,1.85c0,.12.05.14.15,0s.33-.44.62-.79a6,6,0,0,1,1.14-1.06,7.29,7.29,0,0,1,1.69-.92,6.12,6.12,0,0,1,2.28-.4,6.51,6.51,0,0,1,3.7.92,6.05,6.05,0,0,1,2.1,2.74,5.08,5.08,0,0,1,.72-1,7.1,7.1,0,0,1,1.36-1.21,8.92,8.92,0,0,1,1.88-1,6,6,0,0,1,2.3-.42,6.75,6.75,0,0,1,2.94.55,4.41,4.41,0,0,1,1.77,1.49,5.85,5.85,0,0,1,.87,2.24,17.52,17.52,0,0,1,.22,2.8v7.58a2.9,2.9,0,0,0,.22,1.05,1.42,1.42,0,0,0,.61.65,3.82,3.82,0,0,0,1.2.33.48.48,0,0,1,.34.21.64.64,0,0,1,.11.4.61.61,0,0,1-.11.35.34.34,0,0,1-.34.17,13.14,13.14,0,0,1-1.54-.13A17.87,17.87,0,0,0,219,163a19.87,19.87,0,0,0-2.31.13,16.65,16.65,0,0,1-2,.13.36.36,0,0,1-.31-.17.62.62,0,0,1-.1-.35.7.7,0,0,1,.1-.4.53.53,0,0,1,.35-.21,4.65,4.65,0,0,0,1.37-.33,1.68,1.68,0,0,0,.7-.62,2.32,2.32,0,0,0,.26-1v-6.31a19,19,0,0,0-.08-2.11,7.62,7.62,0,0,0-.39-2,3.57,3.57,0,0,0-1-1.48,2.59,2.59,0,0,0-1.81-.59,4.23,4.23,0,0,0-2,.49,6,6,0,0,0-1.6,1.24,6.66,6.66,0,0,0-1.08,1.64,4.28,4.28,0,0,0-.39,1.72v7.48a2.9,2.9,0,0,0,.22,1,1.17,1.17,0,0,0,.6.54,5.59,5.59,0,0,0,1.21.28.51.51,0,0,1,.34.21.72.72,0,0,1,.12.4.55.55,0,0,1-.12.35.35.35,0,0,1-.34.17,13.14,13.14,0,0,1-1.54-.13,17.87,17.87,0,0,0-2.19-.13,19.92,19.92,0,0,0-2.32.13,16.61,16.61,0,0,1-1.86.13.34.34,0,0,1-.3-.17.55.55,0,0,1-.12-.35.72.72,0,0,1,.12-.4.51.51,0,0,1,.34-.21,6.41,6.41,0,0,0,1.3-.28,1.28,1.28,0,0,0,.68-.53,2.45,2.45,0,0,0,.24-1v-6.48a17,17,0,0,0-.09-2.11,8,8,0,0,0-.44-2,3.67,3.67,0,0,0-1-1.48,2.77,2.77,0,0,0-1.88-.59,4.83,4.83,0,0,0-2.21.47,4.62,4.62,0,0,0-1.51,1.23,5.52,5.52,0,0,0-.86,1.67,6.3,6.3,0,0,0-.28,1.83Z" transform="translate(0 0)"/><path class="cls-2" d="M0,123.14c21.33,0,21.33,6,42.66,6s21.34-6,42.67-6,21.33,6,42.66,6,21.34-6,42.67-6,21.33,6,42.67,6,21.33-6,42.67-6" transform="translate(0 0)"/><path class="cls-2" d="M0,126c21.33,0,21.33,6,42.66,6s21.34-6,42.67-6,21.33,6,42.66,6,21.34-6,42.67-6,21.33,6,42.67,6,21.33-6,42.67-6" transform="translate(0 0)"/></svg>